# xmcd
#
# Track frame offsets: 
#        151
#        11097
#        20677
#        30887
#        41704
#        51061
#        66925
#        75709
#        86509
#        97774
#        106540
#        117669
#        127238
#        137881
#        149639
#        159535
#        168640
#        179655
#        191181
#        201618
#        211139
#        217581
#        226848
#        237191
#        258332
#        269731
#        280215
#        289697
#        303203
#        314101
#        323660
#
# Disc length: 4478 seconds
#
# Revision: 2
# Processed by: cddbd v1.5.2PL0 Copyright (c) Steve Scherf et al.
# Submitted via: ExactAudioCopyFreeDBPlugin 1.0
#
DISCID=d0117c1f
DTITLE=Various Artist - Lover's Plea Vol VI For Rockers Only
DYEAR=1900
DGENRE=Rock
TTITLE0=Roy Byrd - Bald Head  (Alternate Version)
TTITLE1=Bob Surly - Jailbait
TTITLE2=Roy Brown - Saturday Night
TTITLE3=Claud McLin - Jambo
TTITLE4=Barbara Green - Long Tall Sally
TTITLE5=Jerry Lee Lewis - Wine Spo-De-O-Dee
TTITLE6=Statesmen - Roo-Buh-Doo-Buh-Do
TTITLE7=Jay Hawkins - What That Is
TTITLE8=Amos Miburn - Chicken Shack Boogie
TTITLE9=Thurston Harris - Do What You Did
TTITLE10=Mr Sad Head - Butcher Boy
TTITLE11=T V Slim - Flatfoot Sam
TTITLE12=Smiley Lewis - Hook Line and Sinker
TTITLE13=Joe Turner - Chicken and The Hawk
TTITLE14=Lloyd George - Frog Hunt
TTITLE15=Lavern Baker - Jim Dandy Got Married
TTITLE16=Lollypoppers - A Bottle of Pop and A Lollypop
TTITLE17=Regals - Got The Water Boiling
TTITLE18=Peacocks - Fontella
TTITLE19=Taylor Carmen - Ooh I
TTITLE20=Arthur Lee Maye - Dont' You Know
TTITLE21=J McVea - Trying To Tell Ya
TTITLE22=Paul Williams Orchestra - Hello
TTITLE23=J Johnson - Tangueray
TTITLE24=Bo Diddley - I Wonder Why
TTITLE25=Lamar Morris - The Fugitive
TTITLE26=At Pitman - Crazy Beat
TTITLE27=Jessie Knight - Nothing But Money
TTITLE28=Stomp Gordon - Damp Rags
TTITLE29=Sax Kari - Chocolate Fizz
TTITLE30=Shadows - Beans
EXTD=
EXTT0=
EXTT1=
EXTT2=
EXTT3=
EXTT4=
EXTT5=
EXTT6=
EXTT7=
EXTT8=
EXTT9=
EXTT10=
EXTT11=
EXTT12=
EXTT13=
EXTT14=
EXTT15=
EXTT16=
EXTT17=
EXTT18=
EXTT19=
EXTT20=
EXTT21=
EXTT22=
EXTT23=
EXTT24=
EXTT25=
EXTT26=
EXTT27=
EXTT28=
EXTT29=
EXTT30=
PLAYORDER=
